<svg id="Layer_1" data-name="Layer 1" xmlns="http://www.w3.org/2000/svg" viewBox="0 0 1280 630.5">
  <defs>
    <style>
      .cls-1 {
        fill: #212529;
      }

      .cls-2, .cls-4 {
        fill: #4a67ad;
      }

      .cls-11, .cls-12, .cls-3, .cls-5, .cls-9 {
        isolation: isolate;
      }

      .cls-11, .cls-3, .cls-9 {
        font-size: 21px;
        fill: #fff;
        font-family: ArialMT, Arial;
      }

      .cls-4 {
        stroke: #ff0;
        stroke-width: 2px;
      }

      .cls-12, .cls-4, .cls-6 {
        stroke-miterlimit: 10;
      }

      .cls-12, .cls-6 {
        fill: none;
        stroke: #fff;
      }

      .cls-12, .cls-7 {
        opacity: 0.1;
      }

      .cls-8 {
        fill: #00a676;
      }

      .cls-9 {
        letter-spacing: -0.06em;
      }

      .cls-10 {
        fill: #662d91;
      }

      .cls-11 {
        letter-spacing: -0.06em;
      }
    </style>
  </defs>
  <title>diagram1</title>
  <rect class="cls-1" width="1280" height="630.5"/>
  <g>
    <ellipse class="cls-2" cx="85.65" cy="314.28" rx="67.15" ry="38.68"/>
    <text class="cls-3" transform="translate(63.47 319.39)">Data</text>
  </g>
  <g>
    <ellipse class="cls-2" cx="639.5" cy="314.28" rx="67.15" ry="38.68"/>
    <text class="cls-3" transform="translate(610.9 319.39)">Model</text>
  </g>
  <g>
    <ellipse class="cls-4" cx="1193.35" cy="314.28" rx="67.15" ry="38.68"/>
    <text class="cls-3" transform="translate(1146.66 319.39)">Prediction</text>
  </g>
  <g>
    <rect class="cls-2" x="293.91" y="269.28" width="137.68" height="90" rx="12" ry="12"/>
    <text class="cls-3" transform="translate(303.13 321.42) scale(0.96 1)">Silas Learner</text>
  </g>
  <g>
    <rect class="cls-2" x="847.58" y="269.28" width="137.68" height="90" rx="12" ry="12"/>
    <g class="cls-5">
      <text class="cls-3" transform="translate(866.37 308.42) scale(0.96 1)">Silas Meta </text>
      <text class="cls-3" transform="translate(881.48 333.62) scale(0.96 1)">Learner</text>
    </g>
  </g>
  <path class="cls-6" d="M258.5,313.09l-15.65-14.26a1.31,1.31,0,0,0-1.43-.21,1.19,1.19,0,0,0-.78,1.19v9.13H189.8a1.25,1.25,0,0,0-1.3,1.2v7.93a1.26,1.26,0,0,0,1.22,1.3h50.95v9.13a1.23,1.23,0,0,0,.78,1.18,1.27,1.27,0,0,0,1.43-.24L258.5,315a1.33,1.33,0,0,0,0-1.92Z"/>
  <path class="cls-6" d="M533.5,313.09l-15.65-14.26a1.31,1.31,0,0,0-1.43-.21,1.19,1.19,0,0,0-.78,1.19v9.13H464.8a1.25,1.25,0,0,0-1.3,1.2v7.93a1.26,1.26,0,0,0,1.22,1.3h50.95v9.13a1.23,1.23,0,0,0,.78,1.18,1.27,1.27,0,0,0,1.43-.24L533.5,315a1.33,1.33,0,0,0,0-1.92Z"/>
  <path class="cls-6" d="M811.5,313.09l-15.65-14.26a1.31,1.31,0,0,0-1.43-.21,1.19,1.19,0,0,0-.78,1.19v9.13H742.8a1.25,1.25,0,0,0-1.3,1.2v7.93a1.26,1.26,0,0,0,1.22,1.3h50.95v9.13a1.23,1.23,0,0,0,.78,1.18,1.27,1.27,0,0,0,1.43-.24L811.5,315a1.33,1.33,0,0,0,0-1.92Z"/>
  <path class="cls-6" d="M1090.5,313.09l-15.65-14.26a1.31,1.31,0,0,0-1.43-.21,1.19,1.19,0,0,0-.78,1.19v9.13H1021.8a1.25,1.25,0,0,0-1.3,1.2v7.93a1.26,1.26,0,0,0,1.22,1.3h51v9.13a1.23,1.23,0,0,0,.78,1.18,1.27,1.27,0,0,0,1.43-.24L1090.5,315a1.33,1.33,0,0,0,0-1.92Z"/>
  <g class="cls-7">
    <rect class="cls-8" x="570.79" y="42.5" width="137.68" height="90" rx="12" ry="12"/>
    <g class="cls-5">
      <text class="cls-3" transform="translate(583.39 94.64) scale(0.96 1)">Silas </text>
      <text class="cls-9" transform="translate(632.69 94.64) scale(0.96 1)">V</text>
      <text class="cls-3" transform="translate(645.02 94.64) scale(0.96 1)">erifier</text>
    </g>
  </g>
  <g class="cls-7">
    <ellipse class="cls-8" cx="362.75" cy="87.5" rx="67.15" ry="38.68"/>
    <text class="cls-3" transform="translate(315.49 92.61)">Certificate</text>
  </g>
  <g class="cls-7">
    <ellipse class="cls-8" cx="916.5" cy="87.5" rx="67.15" ry="38.68"/>
    <text class="cls-3" transform="translate(892.57 92.61)">Spec</text>
  </g>
  <g class="cls-7">
    <path class="cls-6" d="M638.66,169.34,624.39,185a1.33,1.33,0,0,0-.2,1.43,1.17,1.17,0,0,0,1.18.77h9.13v50.88a1.27,1.27,0,0,0,1.24,1.3h7.89a1.27,1.27,0,0,0,.94-.37,1.24,1.24,0,0,0,.37-.93V187.19h9.13a1.22,1.22,0,0,0,1.18-.77A1.27,1.27,0,0,0,655,185l-14.43-15.65a1.33,1.33,0,0,0-1.92,0Z"/>
  </g>
  <g class="cls-7">
    <path class="cls-6" d="M465.91,88.21l15.65,14.29a1.3,1.3,0,0,0,1.43.21,1.18,1.18,0,0,0,.77-1.18V92.37h50.87a1.27,1.27,0,0,0,.94-.37,1.31,1.31,0,0,0,.37-.94V83.23a1.27,1.27,0,0,0-1.24-1.3H483.76V72.8a1.22,1.22,0,0,0-.77-1.18,1.27,1.27,0,0,0-1.43.24L465.91,86.29a1.33,1.33,0,0,0,0,1.92Z"/>
  </g>
  <g class="cls-7">
    <path class="cls-6" d="M743.91,88.21l15.65,14.29a1.3,1.3,0,0,0,1.43.21,1.18,1.18,0,0,0,.77-1.18V92.37h50.87a1.27,1.27,0,0,0,.94-.37,1.31,1.31,0,0,0,.37-.94V83.23a1.27,1.27,0,0,0-1.24-1.3H761.76V72.8a1.22,1.22,0,0,0-.77-1.18,1.27,1.27,0,0,0-1.43.24L743.91,86.29a1.33,1.33,0,0,0,0,1.92Z"/>
  </g>
  <g class="cls-7">
    <path class="cls-6" d="M362.6,233.37a1.34,1.34,0,0,0,1-.41L378,217.31a1.27,1.27,0,0,0,.24-1.43,1.22,1.22,0,0,0-1.18-.77H368V164.24a1.27,1.27,0,0,0-1.31-1.31h-7.82a1.31,1.31,0,0,0-.94.37,1.27,1.27,0,0,0-.37.94v50.87h-9.13a1.18,1.18,0,0,0-1.18.77,1.33,1.33,0,0,0,.2,1.43L361.68,233A1.33,1.33,0,0,0,362.6,233.37Z"/>
  </g>
  <g class="cls-7">
    <rect class="cls-10" x="571.86" y="496.5" width="137.68" height="90" rx="12" ry="12"/>
    <g class="cls-5">
      <text class="cls-3" transform="translate(577.15 548.64) scale(0.96 1)">Silas</text>
      <text class="cls-11" transform="translate(620.85 548.64) scale(0.96 1)"> </text>
      <text class="cls-3" transform="translate(625.33 548.64) scale(0.96 1)">Analyser</text>
    </g>
  </g>
  <g class="cls-7">
    <ellipse class="cls-10" cx="364.82" cy="541.5" rx="67.15" ry="38.68"/>
    <text class="cls-3" transform="translate(333.89 546.61)">Insight</text>
  </g>
  <g class="cls-7">
    <path class="cls-6" d="M639.6,460.37a1.34,1.34,0,0,0,1-.41L655,444.31a1.27,1.27,0,0,0,.24-1.43,1.22,1.22,0,0,0-1.18-.77H645V391.24a1.27,1.27,0,0,0-1.31-1.31h-7.82a1.31,1.31,0,0,0-.94.37,1.27,1.27,0,0,0-.37.94v50.87h-9.13a1.18,1.18,0,0,0-1.18.77,1.33,1.33,0,0,0,.2,1.43L638.68,460A1.33,1.33,0,0,0,639.6,460.37Z"/>
  </g>
  <path class="cls-12" d="M361.66,396.34,347.39,412a1.33,1.33,0,0,0-.2,1.43,1.17,1.17,0,0,0,1.18.77h9.13v50.88a1.27,1.27,0,0,0,1.24,1.3h7.89a1.27,1.27,0,0,0,.94-.37,1.24,1.24,0,0,0,.37-.93V414.19h9.13a1.22,1.22,0,0,0,1.18-.77A1.27,1.27,0,0,0,378,412l-14.43-15.65a1.33,1.33,0,0,0-1.92,0Z"/>
  <g class="cls-7">
    <path class="cls-6" d="M465.91,542.54l15.65,14.29A1.28,1.28,0,0,0,483,557a1.18,1.18,0,0,0,.77-1.18V546.7h50.87a1.27,1.27,0,0,0,.94-.37,1.31,1.31,0,0,0,.37-.94v-7.83a1.27,1.27,0,0,0-1.24-1.3H483.76v-9.13A1.24,1.24,0,0,0,483,526a1.28,1.28,0,0,0-1.43.24l-15.65,14.43a1.37,1.37,0,0,0-.41,1A1.33,1.33,0,0,0,465.91,542.54Z"/>
  </g>
</svg>
