<svg id="Layer_1" data-name="Layer 1" xmlns="http://www.w3.org/2000/svg" viewBox="0 0 1280 630.5">
  <defs>
    <style>
      .cls-1 {
        fill: #212529;
      }

      .cls-2, .cls-4 {
        fill: #4a67ad;
      }

      .cls-3 {
        font-size: 21px;
        fill: #fff;
        font-family: ArialMT, Arial;
      }

      .cls-10, .cls-4 {
        stroke: #ff0;
        stroke-width: 2px;
      }

      .cls-10, .cls-4, .cls-5 {
        stroke-miterlimit: 10;
      }

      .cls-5 {
        fill: none;
        stroke: #fff;
      }

      .cls-6 {
        opacity: 0.1;
      }

      .cls-7 {
        fill: #00a676;
      }

      .cls-8 {
        letter-spacing: -0.06em;
      }

      .cls-10, .cls-9 {
        fill: #662d91;
      }
    </style>
  </defs>
  <title>diagram2</title>
  <rect class="cls-1" width="1280" height="630.5"/>
  <g>
    <ellipse class="cls-2" cx="85.65" cy="314.28" rx="67.15" ry="38.68"/>
    <text class="cls-3" transform="translate(63.47 319.39)">Data</text>
  </g>
  <g>
    <ellipse class="cls-2" cx="639.5" cy="314.28" rx="67.15" ry="38.68"/>
    <text class="cls-3" transform="translate(610.9 319.39)">Model</text>
  </g>
  <g>
    <ellipse class="cls-4" cx="1193.35" cy="314.28" rx="67.15" ry="38.68"/>
    <text class="cls-3" transform="translate(1146.66 319.39)">Prediction</text>
  </g>
  <g>
    <rect class="cls-2" x="293.91" y="269.28" width="137.68" height="90" rx="12" ry="12"/>
    <text class="cls-3" transform="translate(303.13 321.42) scale(0.96 1)">Silas Learner</text>
  </g>
  <g>
    <rect class="cls-2" x="847.58" y="269.28" width="137.68" height="90" rx="12" ry="12"/>
    <text class="cls-3" transform="translate(866.37 308.42) scale(0.96 1)">Silas Meta <tspan x="15.74" y="25.2">Learner</tspan></text>
  </g>
  <path class="cls-5" d="M259,312.59l-15.65-14.26a1.32,1.32,0,0,0-1.43-.21,1.19,1.19,0,0,0-.78,1.19v9.13H190.3a1.25,1.25,0,0,0-1.3,1.3v7.83a1.26,1.26,0,0,0,1.3,1.3h50.87V328a1.22,1.22,0,0,0,.78,1.18,1.27,1.27,0,0,0,1.43-.24L259,314.51a1.34,1.34,0,0,0,.41-1A1.32,1.32,0,0,0,259,312.59Z" transform="translate(-0.5 0.5)"/>
  <path class="cls-5" d="M534,312.59l-15.65-14.26a1.32,1.32,0,0,0-1.43-.21,1.19,1.19,0,0,0-.78,1.19v9.13H465.3a1.25,1.25,0,0,0-1.3,1.3v7.83a1.26,1.26,0,0,0,1.3,1.3h50.87V328a1.22,1.22,0,0,0,.78,1.18,1.27,1.27,0,0,0,1.43-.24L534,314.51a1.34,1.34,0,0,0,.41-1A1.32,1.32,0,0,0,534,312.59Z" transform="translate(-0.5 0.5)"/>
  <path class="cls-5" d="M812,312.59l-15.65-14.26a1.32,1.32,0,0,0-1.43-.21,1.19,1.19,0,0,0-.78,1.19v9.13H743.3a1.25,1.25,0,0,0-1.3,1.3v7.83a1.26,1.26,0,0,0,1.3,1.3h50.87V328a1.22,1.22,0,0,0,.78,1.18,1.27,1.27,0,0,0,1.43-.24L812,314.51a1.34,1.34,0,0,0,.41-1A1.32,1.32,0,0,0,812,312.59Z" transform="translate(-0.5 0.5)"/>
  <path class="cls-5" d="M1091,312.59l-15.65-14.26a1.32,1.32,0,0,0-1.43-.21,1.19,1.19,0,0,0-.78,1.19v9.13H1022.3a1.25,1.25,0,0,0-1.3,1.3v7.83a1.26,1.26,0,0,0,1.3,1.3h50.87V328a1.22,1.22,0,0,0,.78,1.18,1.27,1.27,0,0,0,1.43-.24L1091,314.51a1.34,1.34,0,0,0,.41-1A1.32,1.32,0,0,0,1091,312.59Z" transform="translate(-0.5 0.5)"/>
  <g class="cls-6">
    <rect class="cls-7" x="570.79" y="42.5" width="137.68" height="90" rx="12" ry="12"/>
    <text class="cls-3" transform="translate(583.39 94.64) scale(0.96 1)">Silas <tspan class="cls-8" x="51.35" y="0">V</tspan><tspan x="64.2" y="0">erifier</tspan></text>
  </g>
  <g class="cls-6">
    <ellipse class="cls-7" cx="362.75" cy="87.5" rx="67.15" ry="38.68"/>
    <text class="cls-3" transform="translate(315.49 92.61)">Certificate</text>
  </g>
  <g class="cls-6">
    <ellipse class="cls-7" cx="916.5" cy="87.5" rx="67.15" ry="38.68"/>
    <text class="cls-3" transform="translate(892.57 92.61)">Spec</text>
  </g>
  <g class="cls-6">
    <path class="cls-5" d="M639.16,168.84l-14.27,15.65a1.32,1.32,0,0,0-.2,1.43,1.17,1.17,0,0,0,1.18.77H635v50.88a1.27,1.27,0,0,0,1.31,1.3h7.82a1.25,1.25,0,0,0,.94-.37,1.23,1.23,0,0,0,.37-.93V186.69h9.13a1.22,1.22,0,0,0,1.18-.77,1.27,1.27,0,0,0-.24-1.43l-14.43-15.65a1.36,1.36,0,0,0-1-.41A1.31,1.31,0,0,0,639.16,168.84Z" transform="translate(-0.5 0.5)"/>
  </g>
  <g class="cls-6">
    <path class="cls-5" d="M466.41,87.71,482.06,102a1.3,1.3,0,0,0,1.43.21,1.19,1.19,0,0,0,.77-1.18V91.87h50.87a1.29,1.29,0,0,0,.94-.37,1.31,1.31,0,0,0,.37-.94V82.73a1.27,1.27,0,0,0-1.31-1.3H484.26V72.3a1.23,1.23,0,0,0-.77-1.18,1.27,1.27,0,0,0-1.43.24L466.41,85.79a1.36,1.36,0,0,0-.41,1A1.31,1.31,0,0,0,466.41,87.71Z" transform="translate(-0.5 0.5)"/>
  </g>
  <g class="cls-6">
    <path class="cls-5" d="M744.41,87.71,760.06,102a1.3,1.3,0,0,0,1.43.21,1.19,1.19,0,0,0,.77-1.18V91.87h50.87a1.29,1.29,0,0,0,.94-.37,1.31,1.31,0,0,0,.37-.94V82.73a1.27,1.27,0,0,0-1.31-1.3H762.26V72.3a1.23,1.23,0,0,0-.77-1.18,1.27,1.27,0,0,0-1.43.24L744.41,85.79a1.36,1.36,0,0,0-.41,1A1.31,1.31,0,0,0,744.41,87.71Z" transform="translate(-0.5 0.5)"/>
  </g>
  <g class="cls-6">
    <path class="cls-5" d="M363.1,232.87a1.36,1.36,0,0,0,1-.41l14.43-15.65a1.27,1.27,0,0,0,.24-1.43,1.23,1.23,0,0,0-1.18-.77h-9.13V163.74a1.25,1.25,0,0,0-.37-.94,1.29,1.29,0,0,0-.94-.37h-7.82a1.31,1.31,0,0,0-.94.37,1.29,1.29,0,0,0-.37.94v50.87h-9.13a1.19,1.19,0,0,0-1.18.77,1.32,1.32,0,0,0,.2,1.43l14.27,15.65A1.31,1.31,0,0,0,363.1,232.87Z" transform="translate(-0.5 0.5)"/>
  </g>
  <g>
    <rect class="cls-9" x="571.86" y="496.5" width="137.68" height="90" rx="12" ry="12"/>
    <text class="cls-3" transform="translate(577.15 548.64) scale(0.96 1)">Silas<tspan class="cls-8" x="45.52" y="0"> </tspan><tspan x="50.19" y="0">Analyser</tspan></text>
  </g>
  <g>
    <ellipse class="cls-10" cx="364.82" cy="541.5" rx="67.15" ry="38.68"/>
    <text class="cls-3" transform="translate(333.89 546.61)">Insight</text>
  </g>
  <path class="cls-5" d="M640.1,459.87a1.36,1.36,0,0,0,1-.41l14.43-15.65a1.27,1.27,0,0,0,.24-1.43,1.23,1.23,0,0,0-1.18-.77h-9.13V390.74a1.25,1.25,0,0,0-.37-.94,1.29,1.29,0,0,0-.94-.37h-7.82a1.31,1.31,0,0,0-.94.37,1.29,1.29,0,0,0-.37.94v50.87h-9.13a1.19,1.19,0,0,0-1.18.77,1.32,1.32,0,0,0,.2,1.43l14.27,15.65A1.31,1.31,0,0,0,640.1,459.87Z" transform="translate(-0.5 0.5)"/>
  <path class="cls-5" d="M362.16,395.84l-14.27,15.65a1.32,1.32,0,0,0-.2,1.43,1.17,1.17,0,0,0,1.18.77H358v50.88a1.27,1.27,0,0,0,1.31,1.3h7.82a1.25,1.25,0,0,0,.94-.37,1.23,1.23,0,0,0,.37-.93V413.69h9.13a1.22,1.22,0,0,0,1.18-.77,1.27,1.27,0,0,0-.24-1.43l-14.43-15.65a1.36,1.36,0,0,0-1-.41A1.31,1.31,0,0,0,362.16,395.84Z" transform="translate(-0.5 0.5)"/>
  <path class="cls-5" d="M467.41,541.71,483.06,556a1.3,1.3,0,0,0,1.43.21,1.19,1.19,0,0,0,.77-1.18v-9.13h50.87a1.29,1.29,0,0,0,.94-.37,1.31,1.31,0,0,0,.37-.94v-7.83a1.27,1.27,0,0,0-1.31-1.3H485.26V526.3a1.23,1.23,0,0,0-.77-1.18,1.27,1.27,0,0,0-1.43.24l-15.65,14.43a1.36,1.36,0,0,0-.41,1A1.31,1.31,0,0,0,467.41,541.71Z" transform="translate(-0.5 0.5)"/>
</svg>
