<svg xmlns="http://www.w3.org/2000/svg" viewBox="0 0 1280 400.5">
  <defs>
    <style>
      .cls-1 {
        fill: #212529;
      }

      .cls-2 {
        fill: #4a67ad;
      }

      .cls-3 {
        font-size: 21px;
        fill: #fff;
        font-family: ArialMT, Arial;
      }

      .cls-4 {
        fill: none;
        stroke: #fff;
        stroke-miterlimit: 10;
      }

      .cls-5 {
        fill: #546a7b;
      }

      .cls-6 {
        letter-spacing: -0.09em;
      }

      .cls-7 {
        letter-spacing: -0.02em;
      }

      .cls-8 {
        letter-spacing: -0.11em;
      }
    </style>
  </defs>
  <title>diagram4</title>
  <g id="Background">
    <rect class="cls-1" width="1280" height="400.5"/>
    <g>
      <ellipse class="cls-2" cx="85.65" cy="314.28" rx="67.15" ry="38.68"/>
      <text class="cls-3" transform="translate(63.47 319.39)">Data</text>
    </g>
    <g>
      <ellipse class="cls-2" cx="639.5" cy="314.28" rx="67.15" ry="38.68"/>
      <text class="cls-3" transform="translate(610.9 319.39)">Model</text>
    </g>
    <g>
      <ellipse class="cls-2" cx="1193.35" cy="314.28" rx="67.15" ry="38.68"/>
      <text class="cls-3" transform="translate(1146.66 319.39)">Prediction</text>
    </g>
    <g>
      <rect class="cls-2" x="293.91" y="269.28" width="137.68" height="90" rx="12" ry="12"/>
      <text class="cls-3" transform="translate(303.13 321.42) scale(0.96 1)">Silas Learner</text>
    </g>
    <g>
      <rect class="cls-2" x="847.58" y="269.28" width="137.68" height="90" rx="12" ry="12"/>
      <text class="cls-3" transform="translate(866.37 308.42) scale(0.96 1)">Silas Meta <tspan x="15.74" y="25.2">Learner</tspan></text>
    </g>
    <path class="cls-4" d="M259,312.59l-15.65-14.26a1.32,1.32,0,0,0-1.43-.21,1.19,1.19,0,0,0-.78,1.19v9.13H190.3a1.25,1.25,0,0,0-1.3,1.3v7.83a1.26,1.26,0,0,0,1.3,1.3h50.87V328a1.22,1.22,0,0,0,.78,1.18,1.27,1.27,0,0,0,1.43-.24L259,314.51a1.34,1.34,0,0,0,.41-1A1.32,1.32,0,0,0,259,312.59Z" transform="translate(-0.5 0.5)"/>
    <path class="cls-4" d="M534,312.59l-15.65-14.26a1.32,1.32,0,0,0-1.43-.21,1.19,1.19,0,0,0-.78,1.19v9.13H465.3a1.25,1.25,0,0,0-1.3,1.3v7.83a1.26,1.26,0,0,0,1.3,1.3h50.87V328a1.22,1.22,0,0,0,.78,1.18,1.27,1.27,0,0,0,1.43-.24L534,314.51a1.34,1.34,0,0,0,.41-1A1.32,1.32,0,0,0,534,312.59Z" transform="translate(-0.5 0.5)"/>
    <path class="cls-4" d="M812,312.59l-15.65-14.26a1.32,1.32,0,0,0-1.43-.21,1.19,1.19,0,0,0-.78,1.19v9.13H743.3a1.25,1.25,0,0,0-1.3,1.3v7.83a1.26,1.26,0,0,0,1.3,1.3h50.87V328a1.22,1.22,0,0,0,.78,1.18,1.27,1.27,0,0,0,1.43-.24L812,314.51a1.34,1.34,0,0,0,.41-1A1.32,1.32,0,0,0,812,312.59Z" transform="translate(-0.5 0.5)"/>
    <path class="cls-4" d="M1091,312.59l-15.65-14.26a1.32,1.32,0,0,0-1.43-.21,1.19,1.19,0,0,0-.78,1.19v9.13H1022.3a1.25,1.25,0,0,0-1.3,1.3v7.83a1.26,1.26,0,0,0,1.3,1.3h50.87V328a1.22,1.22,0,0,0,.78,1.18,1.27,1.27,0,0,0,1.43-.24L1091,314.51a1.34,1.34,0,0,0,.41-1A1.32,1.32,0,0,0,1091,312.59Z" transform="translate(-0.5 0.5)"/>
    <rect class="cls-5" x="500.5" y="46.5" width="547" height="96" rx="12" ry="12"/>
    <text class="cls-3" transform="translate(704.54 103.5)"><tspan class="cls-6">Y</tspan><tspan x="12.08" y="0">our Own</tspan><tspan class="cls-7" x="91.44" y="0"> </tspan><tspan class="cls-8" x="96.9" y="0">T</tspan><tspan x="107.4" y="0">ools</tspan></text>
    <path class="cls-4" d="M653.07,240.11h-9.13V187.19h9.13a1.23,1.23,0,0,0,1.18-.77A1.27,1.27,0,0,0,654,185l-14.43-15.65a1.36,1.36,0,0,0-1-.41,1.31,1.31,0,0,0-.94.41L623.39,185a1.32,1.32,0,0,0-.2,1.43,1.17,1.17,0,0,0,1.18.77h9.13v52.92h-9.13a1.19,1.19,0,0,0-1.18.77,1.32,1.32,0,0,0,.2,1.43L637.66,258a1.31,1.31,0,0,0,.94.41,1.36,1.36,0,0,0,1-.41L654,242.31a1.27,1.27,0,0,0,.24-1.43A1.23,1.23,0,0,0,653.07,240.11Z" transform="translate(-0.5 0.5)"/>
    <path class="cls-4" d="M930.07,237.11h-9.13V184.19h9.13a1.23,1.23,0,0,0,1.18-.77A1.27,1.27,0,0,0,931,182l-14.43-15.65a1.36,1.36,0,0,0-1-.41,1.31,1.31,0,0,0-.94.41L900.39,182a1.32,1.32,0,0,0-.2,1.43,1.17,1.17,0,0,0,1.18.77h9.13v52.92h-9.13a1.19,1.19,0,0,0-1.18.77,1.32,1.32,0,0,0,.2,1.43L914.66,255a1.31,1.31,0,0,0,.94.41,1.36,1.36,0,0,0,1-.41L931,239.31a1.27,1.27,0,0,0,.24-1.43A1.23,1.23,0,0,0,930.07,237.11Z" transform="translate(-0.5 0.5)"/>
    <path class="cls-4" d="M1191.79,236.11a1.28,1.28,0,0,0-.83-1.19,1.25,1.25,0,0,0-1.39.29l-6.45,6.46-36-36-28.45-28.45,6.46-6.45a1.25,1.25,0,0,0,.29-1.39,1.27,1.27,0,0,0-1.19-.83l-21.27-.87a1.34,1.34,0,0,0-1,.41,1.26,1.26,0,0,0-.37.95l1,21.15a1.3,1.3,0,0,0,.86,1.15,1.18,1.18,0,0,0,1.39-.28l6.45-6.46,28.45,28.44,7.52,7.53,28.45,28.45-6.46,6.45a1.2,1.2,0,0,0-.29,1.39,1.34,1.34,0,0,0,1.16.86l21.15,1a1.27,1.27,0,0,0,1-.37,1.34,1.34,0,0,0,.41-1Z" transform="translate(-0.5 0.5)"/>
    <path class="cls-4" d="M448.28,164.12a1.33,1.33,0,0,0-1-.41l-21.27.87a1.26,1.26,0,0,0-1.18.83,1.24,1.24,0,0,0,.29,1.39l6.46,6.45-36,36h0l-28.44,28.45-6.46-6.46a1.23,1.23,0,0,0-1.38-.29,1.29,1.29,0,0,0-.84,1.19l-.86,21.27a1.34,1.34,0,0,0,.4,1,1.29,1.29,0,0,0,.95.37l21.16-1a1.31,1.31,0,0,0,1.15-.86,1.19,1.19,0,0,0-.29-1.39l-6.45-6.45L403,216.6l7.53-7.53L439,180.63l6.46,6.46a1.17,1.17,0,0,0,1.38.28,1.31,1.31,0,0,0,.87-1.15l1-21.15A1.27,1.27,0,0,0,448.28,164.12Z" transform="translate(-0.5 0.5)"/>
  </g>
</svg>
